<svg xmlns="http://www.w3.org/2000/svg" viewBox="0 0 750 240"><path d="M145.7 147.2c-.1-1.6-.1-3.3-.1-5 0-50.5 41-91.5 91.5-91.5s91.5 41 91.5 91.5c0 2.3-.1 4.6-.3 6.9 1.6.7 3.3 1.5 4.8 2.4.3-3.1.5-6.2.5-9.4 0-53.2-43.3-96.5-96.5-96.5s-96.5 43.3-96.5 96.5c0 2.3.1 4.6.2 6.8 1.6-.6 3.3-1.2 4.9-1.7z" fill="#f35d22"/><path d="M162.1 144.6c9.7 0 18.8 2.6 26.6 7.1 11.2-14.9 29-24.5 49.1-24.5 19 0 35.9 8.6 47.2 22.1a53.44 53.44 0 0 1 44.9.5 88.47 88.47 0 0 0-88.2-95.6c-48.9 0-88.5 39.6-88.5 88.5v2.7c2.8-.5 5.8-.8 8.9-.8z" fill-rule="evenodd" clip-rule="evenodd" fill="#ffce1c"/><path d="M237.6 39.2c-1.9 0-3.5-1.6-3.5-3.5v-30c0-1.9 1.6-3.5 3.5-3.5s3.5 1.6 3.5 3.5v30c0 2-1.6 3.5-3.5 3.5zm98.8 69.8c-1.7 0-3.1-1.2-3.4-2.9-.3-1.9.9-3.7 2.8-4.1l30.5-5.4c1.9-.3 3.7.9 4.1 2.8.3 1.9-.9 3.7-2.8 4.1L337 109h-.6zm-172-45.8c-.9 0-1.8-.3-2.5-1L140 40.3a3.5 3.5 0 0 1 0-5 3.5 3.5 0 0 1 5 0l21.9 21.9a3.5 3.5 0 0 1 0 5c-.7.6-1.6 1-2.5 1zm144.4 0a3.5 3.5 0 0 1-2.5-6l21.9-21.9a3.5 3.5 0 0 1 5 0 3.5 3.5 0 0 1 0 5l-21.9 21.9c-.7.6-1.6 1-2.5 1zm-171 45.8c-.2 0-.4 0-.6-.1l-30.5-5.4c-1.9-.3-3.2-2.2-2.8-4.1.3-1.9 2.1-3.2 4.1-2.8l30.5 5.4c1.9.3 3.2 2.2 2.8 4.1-.4 1.7-1.8 2.9-3.5 2.9zM250 85c-1 0-1.8-.7-2-1.7-.4-2.7-1.7-4.1-4.2-4.4-2.5-.4-4.2.6-5.3 3.1-.5 1-1.6 1.4-2.6 1-1-.5-1.5-1.6-1-2.6 1.9-4.1 5.2-6 9.5-5.4 4.3.6 7 3.3 7.6 7.8.2 1.1-.6 2.1-1.7 2.3-.1-.1-.2-.1-.3-.1zm21.3-.7h-.2c-1.1-.1-1.9-1.1-1.8-2.2.5-4.5 3-7.3 7.4-8 4.3-.8 7.7 1 9.7 5a2 2 0 0 1-.9 2.7 2 2 0 0 1-2.7-.9c-1.2-2.4-2.9-3.3-5.4-2.9-2.5.4-3.8 1.8-4.1 4.6-.1.9-1 1.7-2 1.7zm-9.2 33.6c-11.7 0-18.9-6.7-20.9-19.4-.3-1.6.8-3.2 2.5-3.4 1.6-.3 3.2.8 3.4 2.5 1.7 10.5 7.1 15 17 14.3 9.8-.7 14.2-6.2 13.8-17.1-.1-1.7 1.2-3 2.9-3.1 1.7-.1 3 1.2 3.1 2.9.7 18-10.2 22.6-19.3 23.3h-2.5z" fill="#f3592a"/><path d="M85.5 173.9c0 16.1-10.6 28.9-29.5 28.9H36.5V227c0 3.9-2.2 6.1-6.1 6.1h-7.9c-3.9 0-6.2-2.2-6.2-6.1v-76.8c0-3.9 2.3-6.1 6.2-6.1H56c19.1-.1 29.5 13.8 29.5 29.8zm-20.4.1c0-7.4-4.7-13-11.8-13H36.5v25.7h16.8c7.1 0 11.8-5.6 11.8-12.7zm28.6 52.9v-79.7c0-3.9 2.2-6.1 6.1-6.1h7.4c3.9 0 6.2 2.2 6.2 6.1v79.7c0 3.9-2.3 6.1-6.2 6.1h-7.4c-3.9 0-6.1-2.2-6.1-6.1zm30-26.3c0-18.4 13.9-34.3 35.9-34.3 18.6 0 33.8 11.2 34.7 32 .1 3.7-2.4 5.3-6.2 5.3h-45.5c-.3 7.8 7.5 15.3 20.1 15.3 4.7 0 9.5-1.1 14.5-3.9 3.4-1.9 6.2-1.7 8.6 1.3l1.4 1.8c2.5 3.1 2.3 6.5-1.1 9-7.5 5.5-16.3 7.4-24.7 7.4-23.5-.1-37.7-15.2-37.7-33.9zm52.1-7.9c-1.8-8.8-9.3-11.6-16-11.6-6.9 0-14.6 3.1-16.8 11.6h32.8zm24.4 7.6c0-19.2 13.1-34.1 31.4-34.1 8.6 0 16.3 3.3 21 10.7v-3.2c0-3.9 2.2-6.1 6.1-6.1h7.5c3.9 0 6.1 2.2 6.1 6.1v53.1c0 3.9-2.2 6.1-6.1 6.1h-7.5c-3.9 0-6.1-2.2-6.1-6.1v-3.1c-4.7 7.2-12.3 10.6-21 10.6-18.3.1-31.4-14.6-31.4-34zm52.7 0c0-10.4-6.6-18.3-16.7-18.3-10.3 0-16.3 8.3-16.3 18.3 0 10.2 6 18.3 16.3 18.3 10.1 0 16.7-7.8 16.7-18.3zm30.5 21c-1.9-3.8.1-6.6 4.1-7.6l3.9-.9c3.4-.9 5 .8 7.6 3.4 2.3 2.5 5.7 3.8 9.8 3.8 5 0 8.4-2.3 8.4-5.7 0-2.8-1.9-4.2-6.1-5.7l-8-2.8c-6.7-2.2-18.4-7.1-18.4-18.9 0-12.2 10.2-20.6 24.3-20.6 8.4 0 16 2.7 20.9 9.9 2.5 3.7.6 7-3.6 8l-3.6.9c-3.3.9-5.1-.3-7.4-2.4-1.8-1.8-4.1-2.4-6.4-2.4-4.1 0-6.6 2.5-6.6 5.6 0 2.8 2.5 4.2 6 5.3l8.1 3.1c13.5 4.4 18.3 11.7 18.6 19.7 0 13.7-12.2 20.5-26.3 20.5-11.5-.1-20.9-4.4-25.3-13.2zm57.4-21c0-19.2 13.1-34.1 31.4-34.1 8.6 0 16.3 3.3 21 10.7v-3.2c0-3.9 2.2-6.1 6.1-6.1h7.5c3.9 0 6.1 2.2 6.1 6.1v53.1c0 3.9-2.2 6.1-6.1 6.1h-7.5c-3.9 0-6.1-2.2-6.1-6.1v-3.1c-4.7 7.2-12.3 10.6-21 10.6-18.4.1-31.4-14.6-31.4-34zm52.6 0c0-10.4-6.6-18.3-16.7-18.3-10.3 0-16.3 8.3-16.3 18.3 0 10.2 6 18.3 16.3 18.3 10.1 0 16.7-7.8 16.7-18.3zm34 26.6v-53.1c0-3.9 2.2-6.1 6.1-6.1h7.5c3.9 0 6.1 2.2 6.1 6.1v4.3c3.2-7.5 10.2-11.8 19.8-11.8 17.5 0 23.9 13.7 23.9 29.1v31.5c0 3.9-2.3 6.1-6.2 6.1h-7.4c-3.9 0-6.1-2.2-6.1-6.1v-30.1c0-9.2-3.6-14.5-10.3-14.5s-13.7 5.2-13.7 17.4v27.2c0 3.9-2.2 6.1-6.1 6.1h-7.5c-4 0-6.1-2.2-6.1-6.1zm79.6-15.6v-29h-6.5c-2 0-3.3-1.1-3.3-3.2v-8.3c0-2 1.3-3.2 3.3-3.2h8l2.2-13.2c.5-2.7 2.3-4.1 5-4.1h6.2c2.9 0 4.4 1.7 4.4 4.5v12.8H541c2 0 3.2 1.1 3.2 3.2v8.3c0 2-1.1 3.2-3.2 3.2h-14.7v29.6c0 4.8 2.4 6.7 5.3 6.7 3.3 0 5.5-2.5 5.5-6 0-.6 0-1.4-.1-2.3-.3-2.3.5-3.4 2.7-3.4h7.8c1.7 0 3.1.6 3.6 2.5s.8 3.9.8 5c0 14.1-10 20-21.9 20-11.1 0-23-5.1-23-23.1zm49-10.7c0-18.4 13.9-34.3 35.9-34.3 18.6 0 33.8 11.2 34.7 32 .1 3.7-2.4 5.3-6.2 5.3h-45.5c-.3 7.8 7.5 15.3 20.1 15.3 4.7 0 9.5-1.1 14.5-3.9 3.4-1.9 6.2-1.7 8.6 1.3l1.4 1.8c2.5 3.1 2.3 6.5-1.1 9-7.5 5.5-16.3 7.4-24.7 7.4-23.4-.1-37.7-15.2-37.7-33.9zm52.1-7.9c-1.8-8.8-9.3-11.6-16-11.6-6.9 0-14.6 3.1-16.8 11.6h32.8zm24.4 28.6c-1.9-3.8.1-6.6 4.1-7.6l3.9-.9c3.4-.9 5 .8 7.6 3.4 2.3 2.5 5.7 3.8 9.8 3.8 5 0 8.4-2.3 8.4-5.7 0-2.8-1.9-4.2-6.1-5.7l-8-2.8c-6.7-2.2-18.4-7.1-18.4-18.9 0-12.2 10.2-20.6 24.3-20.6 8.4 0 16 2.7 20.9 9.9 2.5 3.7.6 7-3.6 8l-3.6.9c-3.3.9-5.1-.3-7.4-2.4-1.8-1.8-4.1-2.4-6.4-2.4-4.1 0-6.6 2.5-6.6 5.6 0 2.8 2.5 4.2 6 5.3l8.1 3.1c13.5 4.4 18.3 11.7 18.6 19.7 0 13.7-12.2 20.5-26.3 20.5-11.6-.1-21-4.4-25.3-13.2zm64.4-10v-29h-6.5c-2 0-3.3-1.1-3.3-3.2v-8.3c0-2 1.3-3.2 3.3-3.2h8l2.2-13.2c.5-2.7 2.3-4.1 5-4.1h6.2c2.9 0 4.4 1.7 4.4 4.5v12.8H731c2 0 3.2 1.1 3.2 3.2v8.3c0 2-1.1 3.2-3.2 3.2h-14.7v29.6c0 4.8 2.4 6.7 5.3 6.7 3.3 0 5.5-2.5 5.5-6 0-.6 0-1.4-.1-2.3-.3-2.3.5-3.4 2.7-3.4h7.8c1.7 0 3.1.6 3.6 2.5s.8 3.9.8 5c0 14.1-10 20-21.9 20-11.2 0-23.1-5.1-23.1-23.1z" fill="#5b3bbc"/></svg>